<svg width="1600" height="380" viewBox="0 0 1600 380" fill="none" xmlns="http://www.w3.org/2000/svg" role="img" aria-labelledby="title desc">
  <title id="title">RemoteKeys Connection Flow</title>
  <desc id="desc">A simple diagram showing the phone app connecting through WebSocket to a desktop server.</desc>
  <defs>
    <linearGradient id="line" x1="120" y1="190" x2="1480" y2="190" gradientUnits="userSpaceOnUse">
      <stop stop-color="#38bdf8"/>
      <stop offset="0.5" stop-color="#34d399"/>
      <stop offset="1" stop-color="#f59e0b"/>
    </linearGradient>
    <filter id="shadow" x="0" y="0" width="1600" height="380" filterUnits="userSpaceOnUse">
      <feDropShadow dx="0" dy="16" stdDeviation="18" flood-color="#000000" flood-opacity="0.3"/>
    </filter>
  </defs>
  <rect width="1600" height="380" rx="34" fill="#0b1220"/>
  <rect x="24" y="24" width="1552" height="332" rx="28" fill="#111827" stroke="#1f2937"/>
  <path d="M240 190H1360" stroke="#1f2937" stroke-width="18" stroke-linecap="round"/>
  <path d="M240 190H1360" stroke="url(#line)" stroke-width="6" stroke-linecap="round" stroke-dasharray="22 16"/>
  <g filter="url(#shadow)">
    <rect x="106" y="92" width="248" height="196" rx="28" fill="#0f172a" stroke="#334155"/>
    <rect x="146" y="126" width="168" height="20" rx="10" fill="#334155"/>
    <rect x="146" y="162" width="108" height="16" rx="8" fill="#1f2937"/>
    <rect x="146" y="196" width="138" height="16" rx="8" fill="#1f2937"/>
    <rect x="180" y="230" width="70" height="24" rx="12" fill="#38bdf8"/>
    <circle cx="294" cy="156" r="24" fill="#38bdf8" opacity="0.18"/>
    <path d="M286 156L294 146L302 156L294 166Z" fill="#38bdf8"/>
  </g>
  <g filter="url(#shadow)">
    <rect x="676" y="78" width="248" height="224" rx="28" fill="#0b1220" stroke="#334155"/>
    <rect x="714" y="120" width="170" height="20" rx="10" fill="#334155"/>
    <rect x="714" y="158" width="128" height="16" rx="8" fill="#1f2937"/>
    <rect x="714" y="188" width="98" height="16" rx="8" fill="#1f2937"/>
    <rect x="714" y="220" width="138" height="16" rx="8" fill="#1f2937"/>
    <rect x="740" y="248" width="70" height="24" rx="12" fill="#34d399"/>
    <path d="M786 156L794 146L802 156L794 166Z" fill="#34d399"/>
    <circle cx="794" cy="156" r="24" fill="#34d399" opacity="0.18"/>
  </g>
  <g filter="url(#shadow)">
    <rect x="1152" y="92" width="340" height="196" rx="28" fill="#111827" stroke="#334155"/>
    <rect x="1190" y="126" width="164" height="20" rx="10" fill="#334155"/>
    <rect x="1190" y="162" width="194" height="16" rx="8" fill="#1f2937"/>
    <rect x="1190" y="196" width="148" height="16" rx="8" fill="#1f2937"/>
    <rect x="1190" y="230" width="120" height="24" rx="12" fill="#f59e0b"/>
    <rect x="1420" y="146" width="26" height="82" rx="13" fill="#38bdf8" opacity="0.85"/>
    <path d="M1433 130L1450 146L1416 146Z" fill="#38bdf8"/>
  </g>
  <text x="126" y="332" fill="#cbd5e1" font-family="Inter, ui-sans-serif, system-ui, -apple-system, BlinkMacSystemFont, sans-serif" font-size="18">RemoteKeys app</text>
  <text x="708" y="332" fill="#cbd5e1" font-family="Inter, ui-sans-serif, system-ui, -apple-system, BlinkMacSystemFont, sans-serif" font-size="18">WebSocket server</text>
  <text x="1180" y="332" fill="#cbd5e1" font-family="Inter, ui-sans-serif, system-ui, -apple-system, BlinkMacSystemFont, sans-serif" font-size="18">Desktop control target</text>
  <text x="724" y="54" fill="#94a3b8" font-family="Inter, ui-sans-serif, system-ui, -apple-system, BlinkMacSystemFont, sans-serif" font-size="14">Local network connection on ws://localhost:8765/remote</text>
</svg>